<?xml version="1.0" standalone="no"?>
<!DOCTYPE svg PUBLIC "-//W3C//DTD SVG 20010904//EN"
 "http://www.w3.org/TR/2001/REC-SVG-20010904/DTD/svg10.dtd">
<svg version="1.0" xmlns="http://www.w3.org/2000/svg"
 width="1680.000000pt" height="840.000000pt" viewBox="0 0 1680.000000 840.000000"
 preserveAspectRatio="xMidYMid meet">

<g transform="translate(0.000000,840.000000) scale(0.100000,-0.100000)"
fill="#000000" stroke="none">
<path d="M7657 6777 c-3 -8 -6 -132 -6 -278 -1 -145 -6 -281 -11 -303 -6 -29
-25 -54 -74 -100 -36 -33 -70 -74 -75 -89 -7 -19 -11 -245 -11 -667 l0 -640
29 -32 c29 -33 31 -33 118 -33 l88 0 0 130 0 130 -74 7 c-44 4 -77 12 -82 20
-5 7 -8 155 -6 328 l2 315 55 -5 c91 -7 252 -6 308 3 l52 9 0 -181 c0 -120 4
-181 10 -181 6 0 24 7 41 15 l30 16 -3 368 -3 368 -30 43 c-16 24 -53 61 -82
83 -37 28 -56 50 -63 76 -6 20 -13 158 -15 314 -3 153 -7 283 -10 288 -10 15
-182 11 -188 -4z"/>
<path d="M9330 5767 c-14 -6 -28 -16 -31 -21 -4 -5 -14 -6 -23 -3 -11 5 -20
-1 -28 -18 -13 -28 -23 -32 -32 -10 -13 35 -32 11 -71 -90 -7 -17 -9 -15 -17
15 -12 44 -25 59 -34 37 -3 -9 -12 -17 -20 -17 -8 0 -14 -9 -14 -21 0 -16 -4
-19 -19 -14 -19 6 -20 0 -18 -144 1 -104 -2 -154 -10 -162 -9 -9 -14 -1 -23
32 -23 84 -51 147 -68 153 -9 3 -30 14 -47 25 -16 11 -33 20 -36 20 -13 2 -25
-46 -23 -90 l1 -47 -32 14 -33 13 -5 -37 c-4 -29 0 -41 17 -56 14 -13 17 -20
9 -23 -29 -10 -9 -32 47 -52 72 -26 112 -58 146 -118 35 -59 29 -115 -16 -155
-16 -16 -39 -28 -49 -28 -16 0 -31 -18 -31 -36 0 -14 60 0 92 22 30 21 42 38
53 79 14 47 38 79 73 100 8 4 69 11 137 15 120 7 124 8 149 36 31 35 32 44 7
44 -36 0 -31 17 9 35 22 10 47 27 57 37 17 19 17 20 -1 30 -17 9 -16 11 5 34
17 18 20 27 12 35 -6 6 -9 26 -6 45 7 40 -8 44 -46 15 -13 -10 -31 -17 -40
-14 -10 2 -24 -8 -36 -27 -11 -17 -27 -29 -35 -28 -8 1 -45 -28 -82 -65 -58
-59 -98 -83 -98 -59 0 4 13 29 29 54 32 50 66 77 126 100 22 9 44 24 50 34 5
11 14 22 18 25 9 6 37 57 37 66 0 3 -14 3 -31 -1 l-30 -6 30 37 c36 44 38 53
11 53 -25 0 -25 8 -2 34 14 16 18 32 14 69 -4 51 -5 51 -42 34z"/>
<path d="M5020 5675 c0 -10 10 -15 30 -15 38 0 85 -23 96 -47 11 -22 18 -901
9 -992 -8 -76 -33 -107 -94 -117 -25 -4 -41 -12 -41 -20 0 -11 32 -14 166 -14
128 0 165 3 162 13 -3 6 -15 13 -29 15 -56 7 -90 25 -107 55 -15 29 -17 79
-20 516 -2 267 1 488 6 493 5 5 163 -231 368 -547 244 -377 364 -555 376 -555
16 0 17 39 20 563 2 434 6 567 16 584 15 28 62 53 97 53 16 0 25 6 25 15 0 13
-25 15 -166 15 -127 0 -165 -3 -162 -12 3 -7 23 -16 46 -20 52 -9 78 -23 94
-51 19 -33 25 -841 6 -835 -7 3 -146 210 -308 461 l-295 456 -147 1 c-125 0
-148 -2 -148 -15z"/>
<path d="M6250 5675 c0 -10 10 -15 30 -15 16 0 40 -5 53 -11 52 -24 52 -20 55
-509 2 -250 1 -483 -3 -518 -8 -79 -33 -111 -93 -119 -26 -3 -42 -11 -42 -19
0 -12 75 -14 446 -14 l447 0 -7 77 c-3 42 -6 118 -6 170 0 74 -3 93 -14 93
-10 0 -17 -16 -22 -47 -30 -210 -98 -263 -339 -263 -126 0 -179 12 -197 43
-10 16 -13 89 -13 272 l0 250 73 3 c123 5 180 -33 197 -133 14 -85 17 -95 30
-95 12 0 13 42 11 243 -3 192 -7 242 -17 242 -8 0 -18 -24 -26 -62 -14 -72
-32 -110 -63 -138 -19 -17 -36 -20 -114 -20 l-91 0 -3 223 c-3 265 3 297 56
319 57 24 314 15 361 -12 52 -31 74 -68 92 -158 11 -58 21 -83 32 -85 14 -3
16 15 19 140 2 79 2 146 0 151 -2 4 -194 7 -428 7 -370 0 -424 -2 -424 -15z"/>
<path d="M8185 5258 c-121 -66 -257 -140 -303 -165 -46 -25 -81 -47 -78 -50 3
-3 49 0 103 6 146 18 152 19 146 41 -10 39 78 90 124 73 28 -10 33 -26 17 -50
-14 -22 -13 -23 13 -23 51 1 623 77 631 85 11 11 -86 90 -155 125 -67 35 -83
35 -62 2 11 -18 10 -24 -5 -41 -27 -30 -80 -37 -125 -16 -70 31 -77 93 -14
110 l28 8 -25 7 c-52 16 -81 5 -295 -112z"/>
<path d="M9993 5290 c-37 -22 -63 -67 -63 -109 0 -37 -20 -52 -125 -92 -112
-43 -168 -47 -290 -16 -136 34 -189 40 -262 28 -164 -26 -276 -137 -318 -313
-20 -85 -20 -144 1 -152 9 -3 186 -6 394 -6 l378 0 37 48 c73 91 140 154 204
189 l63 36 73 -18 c70 -18 75 -18 119 -1 26 10 55 30 67 47 47 66 30 161 -35
200 -35 21 -39 27 -51 86 -4 19 -21 45 -41 63 -42 36 -101 41 -151 10z m101
-30 c28 -10 51 -42 61 -82 6 -23 2 -29 -24 -43 -46 -23 -38 -35 24 -35 74 0
105 -28 105 -94 0 -37 -5 -48 -31 -70 -44 -37 -106 -32 -171 16 -14 10 -25 8
-63 -10 l-47 -22 -34 34 c-29 29 -34 41 -34 80 0 42 3 49 31 64 59 33 63 38
61 76 -2 29 3 43 27 66 31 32 53 36 95 20z m-736 -246 c12 -8 22 -21 22 -27
-1 -30 -21 -41 -85 -48 -75 -7 -107 -26 -144 -82 -26 -39 -59 -49 -81 -22 -14
17 -6 49 26 92 57 76 207 126 262 87z"/>
<path d="M8290 5070 c-289 -38 -526 -69 -528 -69 -2 -1 -2 -20 0 -43 3 -37 6
-43 33 -50 40 -10 55 -33 55 -83 0 -47 -22 -75 -58 -75 -20 0 -22 -5 -22 -60
l0 -60 195 0 195 0 48 50 c41 42 54 50 86 50 38 0 64 -18 97 -70 16 -25 16
-25 203 -28 134 -2 192 0 202 9 8 6 14 28 14 48 0 33 -4 38 -36 50 -38 14 -74
61 -74 99 0 54 56 112 109 112 21 0 28 26 33 130 2 43 0 55 -12 56 -8 1 -251
-29 -540 -66z m-185 -85 c41 -40 33 -105 -16 -131 -56 -28 -109 8 -109 74 0
40 38 82 75 82 14 0 37 -11 50 -25z m451 -99 c38 -38 44 -77 19 -126 -17 -32
-61 -60 -95 -60 -85 0 -140 109 -89 174 45 57 115 62 165 12z"/>
<path d="M7712 4538 c-7 -7 -12 -19 -12 -28 0 -41 -15 -40 1041 -40 560 0
1024 3 1033 6 19 7 21 45 4 62 -17 17 -2049 17 -2066 0z"/>
<path d="M10050 3073 c-106 -274 -203 -519 -216 -544 -22 -44 -75 -99 -95 -99
-5 0 -9 -7 -9 -15 0 -13 23 -15 151 -15 116 0 150 3 147 12 -3 7 -21 16 -40
19 -77 12 -106 53 -94 129 7 42 82 247 99 268 7 9 57 12 206 10 l195 -3 57
-150 c78 -203 77 -240 -8 -254 -20 -3 -38 -12 -41 -19 -3 -9 39 -12 187 -12
163 0 191 2 191 15 0 8 -6 15 -14 15 -22 0 -65 40 -85 78 -10 21 -101 249
-201 507 -202 524 -215 555 -228 555 -5 0 -96 -224 -202 -497z m238 47 c44
-118 83 -223 87 -232 7 -17 -6 -18 -179 -18 -102 0 -186 4 -186 9 0 9 168 449
177 464 10 16 21 -8 101 -223z"/>
<path d="M5010 3545 c0 -7 20 -16 45 -19 31 -5 51 -15 65 -33 20 -26 20 -35
18 -524 -3 -560 1 -527 -79 -538 -23 -3 -44 -12 -47 -19 -3 -11 54 -13 309
-10 l314 3 65 31 c190 90 249 307 123 453 -41 49 -131 96 -200 107 -24 3 -46
10 -49 15 -3 5 16 18 42 29 65 28 120 74 151 127 39 68 44 180 11 243 -30 55
-92 104 -161 126 -43 14 -100 18 -329 19 -214 1 -278 -1 -278 -10z m495 -26
c100 -25 153 -126 142 -268 -8 -106 -45 -176 -111 -210 -41 -21 -62 -25 -145
-25 l-96 -1 -3 212 c-3 281 5 301 121 302 27 1 68 -4 92 -10z m68 -550 c56
-18 113 -72 134 -127 24 -64 24 -190 0 -254 -22 -58 -92 -123 -151 -140 -23
-7 -80 -13 -128 -13 -78 0 -90 3 -110 23 -22 22 -23 28 -26 263 -2 133 -1 248
3 257 5 13 23 14 123 9 64 -3 134 -12 155 -18z"/>
<path d="M6030 3544 c0 -6 20 -15 44 -18 86 -13 81 18 81 -547 0 -498 0 -498
-22 -520 -12 -12 -38 -25 -59 -28 -21 -3 -39 -12 -42 -19 -3 -9 42 -12 202
-12 135 0 206 4 206 10 0 12 -10 16 -62 25 -41 6 -68 42 -68 87 0 23 540 799
560 806 6 2 10 -150 10 -413 0 -494 4 -475 -99 -487 -14 -2 -26 -9 -29 -15 -3
-10 42 -13 203 -13 161 0 206 3 203 12 -3 7 -21 16 -42 19 -21 3 -47 16 -59
28 -22 22 -22 22 -22 520 0 565 -5 534 81 547 24 3 44 12 44 18 0 9 -52 12
-205 13 -154 0 -205 -3 -205 -12 0 -7 19 -15 42 -18 51 -7 88 -44 88 -88 0
-22 -62 -118 -262 -402 -143 -204 -272 -383 -285 -397 l-24 -25 3 431 c3 489
-1 467 84 480 25 3 44 12 44 19 0 9 -50 12 -205 12 -153 -1 -205 -4 -205 -13z"/>
<path d="M7310 3544 c0 -6 20 -15 44 -18 85 -13 81 16 84 -534 2 -341 -1 -495
-9 -513 -11 -27 -43 -45 -88 -51 -14 -2 -26 -9 -29 -15 -3 -10 42 -13 203 -13
161 0 206 3 203 12 -3 7 -21 16 -42 19 -21 3 -47 16 -59 28 -21 21 -22 28 -22
264 l0 242 265 0 265 0 3 -220 c2 -134 -1 -234 -8 -256 -10 -37 -36 -54 -89
-61 -14 -2 -26 -9 -29 -15 -3 -10 42 -13 203 -13 161 0 206 3 203 13 -3 6 -15
13 -29 15 -53 7 -79 24 -90 61 -7 24 -9 198 -7 512 3 540 -1 512 84 525 24 3
44 12 44 18 0 9 -52 12 -205 13 -155 0 -205 -3 -205 -12 0 -7 19 -16 44 -19
80 -12 81 -15 84 -287 l3 -239 -271 0 -271 0 3 239 c3 272 4 275 84 287 24 3
44 12 44 18 0 9 -52 12 -205 12 -153 0 -205 -3 -205 -12z"/>
<path d="M8560 3544 c0 -6 20 -15 44 -18 86 -13 81 18 81 -547 0 -498 0 -498
-22 -520 -12 -12 -38 -25 -59 -28 -21 -3 -39 -12 -42 -19 -3 -9 42 -12 203
-12 161 0 206 3 203 13 -3 6 -15 13 -29 15 -45 6 -77 24 -88 50 -8 18 -10 106
-9 257 l3 230 265 0 265 0 0 -242 c0 -236 -1 -243 -22 -264 -12 -12 -38 -25
-59 -28 -21 -3 -39 -12 -42 -19 -3 -9 42 -12 202 -12 135 0 206 4 206 10 0 12
-10 16 -62 25 -69 11 -68 3 -68 548 0 471 1 485 20 510 14 18 34 28 65 33 25
3 45 12 45 18 0 9 -52 12 -205 12 -153 0 -205 -3 -205 -12 0 -6 20 -15 44 -18
80 -12 81 -15 84 -287 l3 -239 -271 0 -271 0 3 239 c3 272 4 275 84 287 25 3
44 12 44 19 0 9 -50 12 -205 12 -153 -1 -205 -4 -205 -13z"/>
<path d="M11203 3545 c-129 -28 -206 -80 -243 -167 -19 -43 -22 -65 -18 -128
5 -87 27 -137 85 -192 38 -37 133 -88 165 -88 38 0 24 -18 -28 -34 -63 -20
-117 -63 -143 -115 -10 -20 -35 -106 -55 -192 -39 -165 -56 -199 -101 -199
-13 0 -40 14 -59 30 -52 46 -60 17 -9 -31 92 -86 222 -70 276 34 11 21 37 113
58 204 61 262 83 285 259 281 l105 -3 0 -225 c0 -199 -2 -229 -18 -253 -9 -15
-28 -29 -42 -32 -14 -3 -36 -7 -50 -10 -14 -3 -25 -10 -25 -15 0 -6 80 -10
211 -10 164 0 210 3 207 13 -3 6 -24 15 -48 18 -84 11 -80 -15 -80 540 0 350
3 495 12 514 8 17 24 29 52 36 67 18 69 19 62 27 -14 14 -507 11 -573 -3z
m267 -43 c25 -30 32 -111 28 -332 l-3 -185 -105 0 c-115 1 -164 13 -211 52
-48 41 -72 98 -77 185 -6 101 3 157 34 205 50 76 117 104 243 100 62 -2 76 -6
91 -25z"/>
<path d="M4995 1700 c0 -133 1 -140 20 -140 19 0 20 7 20 140 0 133 -1 140
-20 140 -19 0 -20 -7 -20 -140z"/>
<path d="M5120 1820 c6 -11 13 -20 15 -20 3 0 5 9 5 20 0 11 -7 20 -15 20 -13
0 -14 -4 -5 -20z"/>
<path d="M8292 1753 c2 -10 10 -18 18 -18 22 0 18 29 -3 33 -14 3 -18 -1 -15
-15z"/>
<path d="M10542 1753 c2 -10 10 -18 18 -18 22 0 18 29 -3 33 -14 3 -18 -1 -15
-15z"/>
<path d="M5297 1673 c4 -99 7 -113 25 -113 16 0 12 168 -4 188 -20 24 -24 11
-21 -75z"/>
<path d="M5452 1753 c-19 -7 -42 -58 -42 -93 0 -37 23 -85 45 -94 9 -3 29 -5
43 -5 21 1 23 2 7 6 -54 13 -77 79 -52 151 8 23 14 42 13 41 0 0 -7 -3 -14 -6z"/>
<path d="M5620 1744 c0 -8 5 -12 10 -9 6 3 10 10 10 16 0 5 -4 9 -10 9 -5 0
-10 -7 -10 -16z"/>
<path d="M5700 1683 c0 -43 -3 -88 -6 -100 -5 -20 -2 -23 21 -23 21 0 26 4 21
16 -3 9 -6 54 -6 100 0 68 -3 84 -15 84 -12 0 -15 -15 -15 -77z"/>
<path d="M5780 1756 c0 -2 7 -9 15 -16 12 -10 15 -10 15 4 0 9 -7 16 -15 16
-8 0 -15 -2 -15 -4z"/>
<path d="M5885 1625 c0 -128 1 -135 20 -135 20 0 22 29 15 263 0 4 -8 7 -17 7
-16 0 -18 -13 -18 -135z"/>
<path d="M6010 1741 c5 -11 10 -45 10 -76 0 -31 -5 -65 -10 -76 -14 -25 2 -25
25 1 38 42 23 170 -21 170 -11 0 -12 -4 -4 -19z"/>
<path d="M6146 1741 c-39 -43 -28 -148 17 -173 18 -9 19 -8 12 8 -14 31 -18
140 -5 163 14 26 -1 27 -24 2z"/>
<path d="M6250 1739 c13 -23 9 -132 -5 -163 -7 -16 -6 -17 12 -8 45 25 56 130
17 173 -23 25 -38 24 -24 -2z"/>
<path d="M6378 1660 c3 -91 5 -100 23 -100 17 0 19 8 19 100 0 97 -1 100 -22
100 -23 0 -23 -2 -20 -100z"/>
<path d="M6505 1660 c0 -93 1 -100 20 -100 19 0 20 7 20 100 0 93 -1 100 -20
100 -19 0 -20 -7 -20 -100z"/>
<path d="M6651 1734 c-28 -35 -29 -112 -2 -145 25 -31 34 -21 20 20 -13 36 -5
116 12 137 8 9 8 14 1 14 -6 0 -20 -12 -31 -26z"/>
<path d="M6756 1743 c11 -23 11 -131 0 -163 l-8 -25 27 26 c23 22 27 35 27 78
0 30 -6 61 -16 76 -19 29 -43 35 -30 8z"/>
<path d="M6908 1708 c15 -29 35 -73 45 -98 12 -32 20 -41 28 -33 8 8 2 35 -22
97 -28 73 -36 86 -55 86 l-23 0 27 -52z"/>
<path d="M7054 1660 c1 -93 2 -100 21 -100 19 0 20 6 17 100 -3 88 -6 100 -21
100 -16 0 -17 -11 -17 -100z"/>
<path d="M7195 1660 c0 -93 1 -100 20 -100 19 0 20 7 20 100 0 93 -1 100 -20
100 -19 0 -20 -7 -20 -100z"/>
<path d="M7325 1660 c0 -93 1 -100 20 -100 19 0 20 7 20 100 0 94 -1 100 -20
100 -20 0 -21 -6 -20 -100z"/>
<path d="M7461 1708 c5 -30 16 -58 26 -65 9 -7 17 -12 18 -10 0 1 -1 30 -3 65
-3 57 -6 62 -26 62 -22 0 -23 -2 -15 -52z"/>
<path d="M7585 1683 c1 -43 -2 -88 -6 -100 -7 -20 -5 -23 16 -23 23 0 24 2 27
100 3 95 2 100 -18 100 -19 0 -20 -5 -19 -77z"/>
<path d="M7731 1741 c-26 -26 -36 -82 -21 -125 13 -42 35 -56 82 -55 l33 1
-30 9 c-16 5 -36 16 -42 26 -16 20 -17 117 -3 144 14 24 5 24 -19 0z"/>
<path d="M7824 1725 c11 -35 36 -49 36 -19 0 23 -19 54 -34 54 -10 0 -11 -7
-2 -35z"/>
<path d="M7951 1734 c-29 -36 -29 -111 0 -148 16 -20 29 -26 57 -25 l37 1 -33
9 c-48 14 -68 86 -42 155 14 37 6 40 -19 8z"/>
<path d="M8158 1660 c3 -91 5 -100 23 -100 17 0 19 8 19 100 0 97 -1 100 -22
100 -23 0 -23 -2 -20 -100z"/>
<path d="M8500 1663 c4 -77 8 -98 20 -101 13 -2 15 10 12 75 -4 97 -9 123 -25
123 -9 0 -11 -24 -7 -97z"/>
<path d="M8637 1742 c-23 -25 -21 -47 4 -71 l21 -19 -21 -21 c-12 -12 -21 -25
-21 -30 0 -5 -3 -16 -6 -25 -4 -12 0 -16 15 -16 17 0 21 6 21 30 0 17 9 39 19
49 18 18 18 19 -2 40 -19 18 -20 25 -10 51 13 34 4 39 -20 12z"/>
<path d="M8735 1660 c0 -93 1 -100 20 -100 19 0 20 7 20 100 0 93 -1 100 -20
100 -19 0 -20 -7 -20 -100z"/>
<path d="M8980 1744 c0 -8 5 -12 10 -9 6 3 10 10 10 16 0 5 -4 9 -10 9 -5 0
-10 -7 -10 -16z"/>
<path d="M9085 1727 c19 -46 7 -61 -44 -52 -26 4 -41 3 -41 -4 0 -12 64 -26
79 -16 19 11 24 -23 8 -55 -19 -37 -6 -39 22 -4 14 18 21 41 21 69 0 28 -7 51
-21 69 -28 36 -41 33 -24 -7z"/>
<path d="M9226 1741 c-60 -66 -26 -182 53 -180 l36 1 -33 9 c-21 6 -36 19 -42
35 -13 34 -13 100 1 126 14 27 6 32 -15 9z"/>
<path d="M9410 1745 c0 -8 2 -15 4 -15 2 0 6 7 10 15 3 8 1 15 -4 15 -6 0 -10
-7 -10 -15z"/>
<path d="M9480 1676 c0 -46 -3 -91 -6 -100 -5 -13 1 -16 26 -16 25 0 31 3 26
16 -3 9 -6 54 -6 100 0 77 -2 84 -20 84 -18 0 -20 -7 -20 -84z"/>
<path d="M9576 1745 c4 -8 10 -12 15 -9 11 6 2 24 -11 24 -5 0 -7 -7 -4 -15z"/>
<path d="M9688 1750 c-23 -14 -41 -75 -34 -114 9 -49 40 -76 84 -75 36 1 36 1
9 9 -16 5 -35 17 -43 27 -16 21 -18 116 -4 144 12 22 11 22 -12 9z"/>
<path d="M9774 1725 c11 -35 36 -49 36 -19 0 23 -19 54 -34 54 -10 0 -11 -7
-2 -35z"/>
<path d="M9870 1744 c0 -14 3 -14 15 -4 8 7 15 14 15 16 0 2 -7 4 -15 4 -8 0
-15 -7 -15 -16z"/>
<path d="M9950 1676 c0 -46 -3 -91 -6 -100 -5 -12 0 -16 21 -16 23 0 26 3 21
23 -3 12 -6 57 -6 100 0 62 -3 77 -15 77 -12 0 -15 -16 -15 -84z"/>
<path d="M10030 1756 c0 -2 7 -9 15 -16 12 -10 15 -10 15 4 0 9 -7 16 -15 16
-8 0 -15 -2 -15 -4z"/>
<path d="M10135 1660 c0 -95 1 -100 21 -100 20 0 21 5 20 100 -1 93 -2 100
-21 100 -19 0 -20 -7 -20 -100z"/>
<path d="M10270 1660 c0 -93 1 -100 20 -100 19 0 20 7 20 100 0 93 -1 100 -20
100 -19 0 -20 -7 -20 -100z"/>
<path d="M10408 1660 c-3 -98 -3 -100 20 -100 21 0 22 3 22 100 0 92 -2 100
-19 100 -18 0 -20 -9 -23 -100z"/>
<path d="M10750 1663 c4 -77 8 -98 20 -101 13 -2 15 10 12 75 -4 97 -9 123
-25 123 -9 0 -11 -24 -7 -97z"/>
<path d="M5200 1730 c0 -11 7 -20 15 -20 8 0 15 9 15 20 0 11 -7 20 -15 20 -8
0 -15 -9 -15 -20z"/>
<path d="M5530 1730 c0 -11 7 -20 15 -20 8 0 15 9 15 20 0 11 -7 20 -15 20 -8
0 -15 -9 -15 -20z"/>
<path d="M8047 1735 c-8 -18 11 -31 25 -17 11 11 3 32 -12 32 -4 0 -10 -7 -13
-15z"/>
<path d="M8403 1735 c-7 -20 2 -29 21 -22 9 4 13 13 10 22 -8 19 -23 19 -31 0z"/>
<path d="M9314 1739 c-10 -17 13 -36 27 -22 12 12 4 33 -11 33 -5 0 -12 -5
-16 -11z"/>
<path d="M10653 1735 c-7 -20 2 -29 21 -22 9 4 13 13 10 22 -8 19 -23 19 -31
0z"/>
<path d="M8262 1632 c10 -20 18 -44 18 -54 0 -11 7 -18 20 -18 24 0 24 0 4 48
-8 22 -25 44 -38 50 l-23 10 19 -36z"/>
<path d="M10519 1610 c11 -35 21 -50 34 -50 22 0 22 12 -3 60 -31 60 -51 53
-31 -10z"/>
<path d="M10658 1639 c-35 -20 -16 -79 26 -79 18 0 18 1 1 20 -12 13 -15 27
-11 45 7 28 7 28 -16 14z"/>
<path d="M5197 1633 c-4 -3 -7 -19 -7 -34 0 -27 16 -39 48 -39 15 1 15 2 0 11
-11 6 -18 22 -18 39 0 29 -9 38 -23 23z"/>
<path d="M8394 1615 c-8 -30 10 -55 40 -55 20 1 20 1 2 15 -13 10 -17 22 -14
40 7 34 -19 34 -28 0z"/>
<path d="M8976 1602 c-8 -13 11 -35 23 -28 16 10 14 36 -3 36 -8 0 -17 -4 -20
-8z"/>
<path d="M6885 1570 c-3 -5 1 -10 10 -10 9 0 13 5 10 10 -3 6 -8 10 -10 10 -2
0 -7 -4 -10 -10z"/>
</g>
</svg>
